<svg width="57" height="56" viewBox="0 0 57 56" fill="none" xmlns="http://www.w3.org/2000/svg">
<mask id="path-1-inside-1_103_2923" fill="white">
<path d="M56 28C56 43.464 43.464 56 28 56C12.536 56 0 43.464 0 28C0 12.536 12.536 0 28 0C43.464 0 56 12.536 56 28ZM9.58158 28C9.58158 38.1722 17.8278 46.4184 28 46.4184C38.1722 46.4184 46.4184 38.1722 46.4184 28C46.4184 17.8278 38.1722 9.58158 28 9.58158C17.8278 9.58158 9.58158 17.8278 9.58158 28Z"/>
</mask>
<path d="M46 28C46 37.9411 37.9411 46 28 46V66C48.9868 66 66 48.9868 66 28H46ZM28 46C18.0589 46 10 37.9411 10 28H-10C-10 48.9868 7.01318 66 28 66V46ZM10 28C10 18.0589 18.0589 10 28 10V-10C7.01318 -10 -10 7.01318 -10 28H10ZM28 10C37.9411 10 46 18.0589 46 28H66C66 7.01318 48.9868 -10 28 -10V10ZM-0.418417 28C-0.418417 43.6951 12.3049 56.4184 28 56.4184V36.4184C23.3506 36.4184 19.5816 32.6494 19.5816 28H-0.418417ZM28 56.4184C43.6951 56.4184 56.4184 43.6951 56.4184 28H36.4184C36.4184 32.6494 32.6494 36.4184 28 36.4184V56.4184ZM56.4184 28C56.4184 12.3049 43.6951 -0.418417 28 -0.418417V19.5816C32.6494 19.5816 36.4184 23.3506 36.4184 28H56.4184ZM28 -0.418417C12.3049 -0.418417 -0.418417 12.3049 -0.418417 28H19.5816C19.5816 23.3506 23.3506 19.5816 28 19.5816V-0.418417Z" fill="#F4F5F9" mask="url(#path-1-inside-1_103_2923)"/>
<path d="M51.7039 28.5633C51.8423 25.5461 51.385 22.5312 50.3583 19.6906C49.3315 16.8501 47.7552 14.2397 45.7196 12.0083C43.684 9.77694 41.2287 7.96838 38.4941 6.68588" stroke="#98A1C0" stroke-width="10" stroke-linecap="round"/>
</svg>
