<svg width="15" height="16" viewBox="0 0 15 16" fill="none" xmlns="http://www.w3.org/2000/svg">
<path fill-rule="evenodd" clip-rule="evenodd" d="M11 6.75C11 9.51142 8.76142 11.75 6 11.75C3.23858 11.75 1 9.51142 1 6.75C1 3.98858 3.23858 1.75 6 1.75C8.76142 1.75 11 3.98858 11 6.75ZM9.62589 11.5309C8.6187 12.2959 7.36238 12.75 6 12.75C2.68629 12.75 0 10.0637 0 6.75C0 3.43629 2.68629 0.75 6 0.75C9.31371 0.75 12 3.43629 12 6.75C12 8.33918 11.3822 9.78406 10.3736 10.8575L14.3322 14.3763C14.5386 14.5598 14.5572 14.8758 14.3737 15.0822C14.1902 15.2886 13.8742 15.3072 13.6678 15.1237L9.62589 11.5309Z" fill="#5D6785"/>
</svg>
